<svg width="64" height="100" viewBox="0 0 64 100" fill="none" xmlns="http://www.w3.org/2000/svg">
<g clip-path="url(#clip0_327_1952)">
<g clip-path="url(#clip1_327_1952)">
<path d="M54.6668 -0.333374H9.3335L13.3335 45L32.0002 50.3333L50.6668 45L54.6668 -0.333374Z" fill="#0277BD"/>
<path d="M32 3.66663V46.2L46.9333 41.9333L50.2667 3.66663H32Z" fill="#039BE5"/>
<path d="M44.1333 10.3334H32V15.6667H38.5333L38.1333 21H32V26.3334H37.8667L37.4667 32.3334L32 34.2V39.8L42.5333 36.3334L43.4667 21L44.1333 10.3334Z" fill="white"/>
<path d="M32.0001 10.3334V15.6667H20.1334L19.7334 10.3334H32.0001ZM25.8667 21L26.1334 26.3334H32.0001V21H25.8667ZM26.4001 29H21.0667L21.4667 36.3334L32.0001 39.8V34.2L26.5334 32.3334L26.4001 29Z" fill="#EEEEEE"/>
</g>
<path d="M25.6193 84H24.0341C23.9403 83.544 23.7763 83.1435 23.5419 82.7983C23.3118 82.4531 23.0305 82.1634 22.6982 81.929C22.37 81.6903 22.0057 81.5114 21.6051 81.392C21.2045 81.2727 20.7869 81.2131 20.3523 81.2131C19.5597 81.2131 18.8416 81.4134 18.1982 81.8139C17.5589 82.2145 17.0497 82.8047 16.6705 83.5845C16.2955 84.3643 16.108 85.321 16.108 86.4545C16.108 87.5881 16.2955 88.5447 16.6705 89.3246C17.0497 90.1044 17.5589 90.6946 18.1982 91.0952C18.8416 91.4957 19.5597 91.696 20.3523 91.696C20.7869 91.696 21.2045 91.6364 21.6051 91.517C22.0057 91.3977 22.37 91.2209 22.6982 90.9865C23.0305 90.7479 23.3118 90.456 23.5419 90.1108C23.7763 89.7614 23.9403 89.3608 24.0341 88.9091H25.6193C25.5 89.5781 25.2827 90.1768 24.9673 90.7053C24.652 91.2337 24.2599 91.6832 23.7912 92.054C23.3224 92.4205 22.7962 92.6996 22.2124 92.8913C21.6328 93.0831 21.0128 93.179 20.3523 93.179C19.2358 93.179 18.2429 92.9062 17.3736 92.3608C16.5043 91.8153 15.8203 91.0398 15.3217 90.0341C14.8232 89.0284 14.5739 87.8352 14.5739 86.4545C14.5739 85.0739 14.8232 83.8807 15.3217 82.875C15.8203 81.8693 16.5043 81.0938 17.3736 80.5483C18.2429 80.0028 19.2358 79.7301 20.3523 79.7301C21.0128 79.7301 21.6328 79.826 22.2124 80.0178C22.7962 80.2095 23.3224 80.4908 23.7912 80.8615C24.2599 81.228 24.652 81.6754 24.9673 82.2038C25.2827 82.728 25.5 83.3267 25.6193 84ZM35.34 83.1818C35.2633 82.5341 34.9522 82.0312 34.4068 81.6733C33.8613 81.3153 33.1923 81.1364 32.3997 81.1364C31.8201 81.1364 31.313 81.2301 30.8784 81.4176C30.448 81.6051 30.1113 81.8629 29.8684 82.1911C29.6298 82.5192 29.5105 82.892 29.5105 83.3097C29.5105 83.6591 29.5936 83.9595 29.7598 84.2109C29.9302 84.4581 30.1475 84.6648 30.4118 84.831C30.676 84.9929 30.9529 85.1271 31.2427 85.2337C31.5325 85.3359 31.7988 85.419 32.0417 85.483L33.3713 85.8409C33.7122 85.9304 34.0914 86.054 34.5091 86.2116C34.9309 86.3693 35.3336 86.5845 35.7172 86.8572C36.1049 87.1257 36.4245 87.4709 36.676 87.8928C36.9274 88.3146 37.0531 88.8324 37.0531 89.446C37.0531 90.1534 36.8677 90.7926 36.497 91.3636C36.1305 91.9347 35.5936 92.3885 34.8862 92.7251C34.1831 93.0618 33.3287 93.2301 32.323 93.2301C31.3855 93.2301 30.5737 93.0788 29.8876 92.7763C29.2058 92.4737 28.6689 92.0518 28.2768 91.5107C27.889 90.9695 27.6696 90.3409 27.6184 89.625H29.2548C29.2974 90.1193 29.4636 90.5284 29.7534 90.8523C30.0474 91.1719 30.4181 91.4105 30.8656 91.5682C31.3173 91.7216 31.8031 91.7983 32.323 91.7983C32.9281 91.7983 33.4714 91.7003 33.9529 91.5043C34.4345 91.304 34.8159 91.027 35.0971 90.6733C35.3784 90.3153 35.519 89.8977 35.519 89.4205C35.519 88.9858 35.3976 88.6321 35.1547 88.3594C34.9118 88.0866 34.5922 87.8651 34.1958 87.6946C33.7995 87.5241 33.3713 87.375 32.911 87.2472L31.3002 86.7869C30.2775 86.4929 29.4679 86.0732 28.8713 85.5277C28.2747 84.9822 27.9764 84.2685 27.9764 83.3864C27.9764 82.6534 28.1745 82.0142 28.5708 81.4688C28.9714 80.919 29.5083 80.4929 30.1816 80.1903C30.8592 79.8835 31.6156 79.7301 32.4508 79.7301C33.2946 79.7301 34.0446 79.8814 34.7008 80.1839C35.3571 80.4822 35.877 80.8913 36.2605 81.4112C36.6483 81.9311 36.8528 82.5213 36.8741 83.1818H35.34ZM46.8185 83.1818C46.7418 82.5341 46.4308 82.0312 45.8853 81.6733C45.3398 81.3153 44.6708 81.1364 43.8782 81.1364C43.2987 81.1364 42.7915 81.2301 42.3569 81.4176C41.9265 81.6051 41.5898 81.8629 41.3469 82.1911C41.1083 82.5192 40.989 82.892 40.989 83.3097C40.989 83.6591 41.0721 83.9595 41.2383 84.2109C41.4087 84.4581 41.6261 84.6648 41.8903 84.831C42.1545 84.9929 42.4315 85.1271 42.7212 85.2337C43.011 85.3359 43.2773 85.419 43.5202 85.483L44.8498 85.8409C45.1907 85.9304 45.57 86.054 45.9876 86.2116C46.4094 86.3693 46.8121 86.5845 47.1957 86.8572C47.5835 87.1257 47.9031 87.4709 48.1545 87.8928C48.4059 88.3146 48.5316 88.8324 48.5316 89.446C48.5316 90.1534 48.3462 90.7926 47.9755 91.3636C47.609 91.9347 47.0721 92.3885 46.3647 92.7251C45.6616 93.0618 44.8072 93.2301 43.8015 93.2301C42.864 93.2301 42.0522 93.0788 41.3661 92.7763C40.6843 92.4737 40.1474 92.0518 39.7553 91.5107C39.3675 90.9695 39.1481 90.3409 39.0969 89.625H40.7333C40.7759 90.1193 40.9421 90.5284 41.2319 90.8523C41.5259 91.1719 41.8967 91.4105 42.3441 91.5682C42.7958 91.7216 43.2816 91.7983 43.8015 91.7983C44.4066 91.7983 44.9499 91.7003 45.4315 91.5043C45.913 91.304 46.2944 91.027 46.5756 90.6733C46.8569 90.3153 46.9975 89.8977 46.9975 89.4205C46.9975 88.9858 46.8761 88.6321 46.6332 88.3594C46.3903 88.0866 46.0707 87.8651 45.6744 87.6946C45.2781 87.5241 44.8498 87.375 44.3896 87.2472L42.7788 86.7869C41.756 86.4929 40.9464 86.0732 40.3498 85.5277C39.7532 84.9822 39.4549 84.2685 39.4549 83.3864C39.4549 82.6534 39.6531 82.0142 40.0494 81.4688C40.4499 80.919 40.9869 80.4929 41.6602 80.1903C42.3377 79.8835 43.0941 79.7301 43.9293 79.7301C44.7731 79.7301 45.5231 79.8814 46.1793 80.1839C46.8356 80.4822 47.3555 80.8913 47.739 81.4112C48.1268 81.9311 48.3313 82.5213 48.3526 83.1818H46.8185Z" fill="white"/>
</g>
<defs>
<clipPath id="clip0_327_1952">
<rect width="64" height="100" fill="white"/>
</clipPath>
<clipPath id="clip1_327_1952">
<rect width="64" height="64" fill="white"/>
</clipPath>
</defs>
</svg>
