<svg xmlns="http://www.w3.org/2000/svg" viewBox="0 0 48 48" style="enable-background:new 0 0 48 48" xml:space="preserve"><linearGradient id="a" gradientUnits="userSpaceOnUse" x1="16.3" y1="-2.7" x2="32.3" y2="41.1"><stop offset="0" style="stop-color:#2aa4f4"/><stop offset="1" style="stop-color:#007ad9"/></linearGradient><path style="fill:url(#a)" d="m7 7 3 30 2 3 11 3h2l11-3 2-3 3-30-2-2H9L7 7z"/><path style="fill:#35c1f1" d="M24 8v32l10-3 1-2 3-26-1-1H24z"/><path style="fill:#fff" d="M33 13h-9v4h5v4h-5v4h4v5l-4 1v4l8-2 1-12v-8z"/><path style="fill:#d6e0e9" d="M24 13v4h-9v-4h9zm-5 8 1 4h4v-4h-5zm1 6h-4v6l8 2v-4l-4-1v-3z"/><path d="M33 13v8l-1 12-8 2-8-2v-6h4v3l4 1 4-2v-4h-8l-1-4h10v-4H15v-4h18m1-1H14v6h14v2H18v1l1 4v1h-4v7h1l8 3 8-3h1l1-12v-9zM21 26h6v3l-3 1-3-1v-3z" style="opacity:.05"/><path d="M33 13v8l-1 12-8 2-8-2v-6h4v3l4 1 4-2v-4h-8l-1-4h10v-4H15v-4h18m1 0H14l1 4h13v4h-9v4h9v4l-4 1-4-1v-2h-5l1 6 8 3 8-3 1-12 1-8z" style="opacity:.07"/></svg>