<svg width="53" height="100" fill="none" xmlns="http://www.w3.org/2000/svg"><g clip-path="url(#a)"><g clip-path="url(#b)"><path d="M26.0259 32c0-2.8289 1.1238-5.542 3.1242-7.5424s4.7135-3.1242 7.5424-3.1242c2.829 0 5.5421 1.1238 7.5425 3.1242 2.0004 2.0004 3.1242 4.7135 3.1242 7.5424 0 2.829-1.1238 5.5421-3.1242 7.5425-2.0004 2.0004-4.7135 3.1242-7.5425 3.1242-2.8289 0-5.542-1.1238-7.5424-3.1242S26.0259 34.829 26.0259 32Z" fill="#1ABCFE"/><path d="M4.69238 53.3333c0-2.829 1.12381-5.5421 3.1242-7.5425 2.00039-2.0004 4.71352-3.1242 7.54242-3.1242h10.6667v10.6667c0 2.829-1.1238 5.5421-3.1242 7.5425C20.9011 62.8762 18.188 64 15.359 64c-2.8289 0-5.54203-1.1238-7.54242-3.1242-2.00039-2.0004-3.1242-4.7135-3.1242-7.5425Z" fill="#0ACF83"/><path d="M26.0259 0v21.3333h10.6666c2.829 0 5.5421-1.1238 7.5425-3.1242 2.0004-2.0004 3.1242-4.7135 3.1242-7.5424 0-2.82901-1.1238-5.54212-3.1242-7.54251C42.2346 1.12381 39.5215 0 36.6925 0H26.0259Z" fill="#FF7262"/><path d="M4.69238 10.6667c0 2.8289 1.12381 5.542 3.1242 7.5424 2.00039 2.0004 4.71352 3.1242 7.54242 3.1242h10.6667V0H15.359c-2.8289 0-5.54203 1.12381-7.54242 3.12419-2.00039 2.00039-3.1242 4.7135-3.1242 7.54251Z" fill="#F24E1E"/><path d="M4.69238 32c0 2.829 1.12381 5.5421 3.1242 7.5425 2.00039 2.0004 4.71352 3.1242 7.54242 3.1242h10.6667V21.3334H15.359c-2.8289 0-5.54203 1.1238-7.54242 3.1242C5.81619 26.458 4.69238 29.1711 4.69238 32Z" fill="#A259FF"/></g><path d="M1.61111 93V79.9091h7.84943v1.4062H3.19633v4.4233h5.67614v1.4063H3.19633V93H1.61111ZM11.971 93v-9.8182h1.5085V93H11.971Zm.7671-11.4545c-.2941 0-.5476-.1002-.7607-.3005-.2088-.2003-.3132-.441-.3132-.7223 0-.2812.1044-.522.3132-.7223.2131-.2003.4666-.3004.7607-.3004.294 0 .5454.1001.7542.3004.2131.2003.3196.4411.3196.7223 0 .2813-.1065.522-.3196.7223-.2088.2003-.4602.3005-.7542.3005Zm7.4675 15.3409c-.7287 0-1.3551-.0938-1.8793-.2813-.5241-.1832-.9609-.4261-1.3104-.7287-.3451-.2983-.62-.6179-.8245-.9588l1.2017-.8437c.1363.1789.3089.3835.5177.6136.2088.2344.4943.4368.8566.6072.3664.1748.8458.2621 1.4382.2621.7926 0 1.4467-.1917 1.9623-.5753.5156-.3835.7735-.9843.7735-1.8025v-1.9943h-.1279c-.1108.1789-.2684.4005-.473.6647-.2003.26-.49.4922-.8693.6968-.375.2002-.8821.3004-1.5213.3004-.7926 0-1.5043-.1875-2.135-.5625-.6264-.375-1.1228-.9205-1.4893-1.6364-.3622-.7159-.5433-1.5852-.5433-2.6079 0-1.0057.1768-1.8814.5305-2.6272.3537-.75.8459-1.3295 1.4766-1.7386.6307-.4133 1.3593-.62 2.1861-.62.6392 0 1.1463.1065 1.5213.3196.3792.2088.669.4474.8693.7159.2045.2642.3622.4815.473.652h.1534v-1.5597h1.4574v10.0994c0 .8438-.1918 1.5299-.5753 2.0583-.3793.5327-.8906.9226-1.5341 1.1697-.6392.2515-1.3508.3772-2.1349.3772Zm-.0512-5.3949c.6051 0 1.1165-.1385 1.5341-.4155.4176-.277.7351-.6754.9524-1.1953.2174-.5199.326-1.1421.326-1.8665 0-.7074-.1065-1.3317-.3196-1.8729-.213-.5412-.5284-.9652-.946-1.272-.4176-.3068-.9332-.4602-1.5469-.4602-.6392 0-1.1718.1619-1.598.4858-.4219.3238-.7393.7585-.9524 1.304-.2088.5454-.3132 1.1505-.3132 1.8153 0 .6818.1065 1.2848.3196 1.809.2173.5198.5369.9289.9588 1.2272.4261.2941.9545.4411 1.5852.4411ZM27.2112 93v-9.8182h1.4574v1.5341h.1279c.2045-.5241.5348-.9311.9907-1.2209.456-.294 1.0036-.441 1.6428-.441.6477 0 1.1868.147 1.6172.441.4346.2898.7734.6968 1.0163 1.2209h.1023c.2514-.5071.6285-.9098 1.1314-1.2081.5028-.3025 1.1058-.4538 1.8089-.4538.8779 0 1.5959.2748 2.1542.8246.5582.5454.8373 1.3955.8373 2.5504V93h-1.5085v-6.571c0-.7245-.1982-1.2422-.5945-1.5533-.3963-.3111-.8629-.4666-1.3998-.4666-.6904 0-1.2252.2088-1.6044.6264-.3793.4134-.5689.9375-.5689 1.5725V93h-1.5341v-6.7244c0-.5583-.1811-1.0078-.5433-1.3488-.3623-.3451-.8289-.5177-1.3999-.5177-.392 0-.7585.1044-1.0994.3132-.3367.2088-.6094.4986-.8182.8693-.2046.3665-.3068.7905-.3068 1.272V93h-1.5086Zm18.5338.2301c-.6222 0-1.1868-.1172-1.6939-.3515-.5071-.2387-.9098-.5817-1.2081-1.0292-.2983-.4517-.4474-.9971-.4474-1.6363 0-.5625.1107-1.0185.3323-1.3679.2216-.3537.5178-.6307.8885-.831.3708-.2003.7799-.3494 1.2273-.4474.4517-.1023.9055-.1833 1.3615-.2429.5966-.0767 1.0803-.1343 1.451-.1726.375-.0426.6477-.1129.8182-.211.1747-.098.2621-.2684.2621-.5113v-.0512c0-.6306-.1726-1.1207-.5178-1.4701-.3409-.3495-.8587-.5242-1.5533-.5242-.7201 0-1.2848.1577-1.6939.473-.409.3154-.6967.652-.8629 1.01l-1.4318-.5114c.2557-.5966.5966-1.0611 1.0227-1.3935.4304-.3366.8992-.571 1.4063-.7031.5113-.1363 1.0142-.2045 1.5085-.2045.3153 0 .6776.0383 1.0867.115.4133.0725.8117.2238 1.1953.4539.3877.2301.7095.5774.9652 1.0419.2556.4645.3835 1.0866.3835 1.8664V93h-1.5085v-1.3295h-.0767c-.1023.213-.2728.441-.5114.6839-.2386.2429-.5561.4496-.9524.62-.3963.1705-.88.2557-1.451.2557Zm.2301-1.3551c.5966 0 1.0994-.1172 1.5085-.3516.4134-.2343.7245-.5369.9333-.9076.213-.3708.3196-.7607.3196-1.1698v-1.3807c-.064.0767-.2046.1471-.4219.211-.2131.0596-.4602.1129-.7415.1598-.277.0426-.5476.0809-.8118.115-.2599.0299-.4709.0554-.6328.0767-.392.0512-.7585.1343-1.0994.2493-.3367.1108-.6094.2791-.8182.505-.2046.2216-.3068.5241-.3068.9077 0 .5241.1939.9204.5817 1.1889.392.2642.8884.3963 1.4893.3963Z" fill="white"/></g><defs><clipPath id="a"><path fill="#fff" transform="translate(.0258789)" d="M0 0h52v100H0z"/></clipPath><clipPath id="b"><path fill="#fff" transform="translate(4.69238)" d="M0 0h42.6667v64H0z"/></clipPath></defs></svg>