<svg width="64" height="100" viewBox="0 0 64 100" fill="none" xmlns="http://www.w3.org/2000/svg">
<g clip-path="url(#clip0_327_1952)">
<g clip-path="url(#clip1_327_1952)">
<path d="M55.6668 -0.333374H10.3335L14.3335 45L33.0002 50.3333L51.6668 45L55.6668 -0.333374Z" fill="#E65100"/>
<path d="M33 3.66663V46.2L47.9333 41.9333L51.2667 3.66663H33Z" fill="#FF6D00"/>
<path d="M33 26.3334V21H44.4667L43.5333 36.3334L33 39.8V34.2L38.4667 32.3334L38.8667 26.3334H33ZM44.8667 15.6667L45.2667 10.3334H33V15.6667H44.8667Z" fill="white"/>
<path d="M33 34.2V39.8L22.4667 36.3334L21.9334 29H27.2667L27.5334 32.3334L33 34.2ZM26.4667 15.6667H33V10.3334H20.8667L21.8 26.3334H33V21H26.8667L26.4667 15.6667Z" fill="#EEEEEE"/>
</g>
<path d="M2.58523 93V79.9091H4.17045V85.7386H11.1506V79.9091H12.7358V93H11.1506V87.1449H4.17045V93H2.58523ZM15.1935 81.3153V79.9091H25.0117V81.3153H20.8952V93H19.31V81.3153H15.1935ZM27.4583 79.9091H29.3503L33.7992 90.7756H33.9526L38.4015 79.9091H40.2935V93H38.8105V83.054H38.6827L34.5918 93H33.16L29.0691 83.054H28.9412V93H27.4583V79.9091ZM43.4719 93V79.9091H45.0572V91.5938H51.1424V93H43.4719ZM57.4577 93.179C56.7077 93.179 56.0323 93.0298 55.4315 92.7315C54.8306 92.4332 54.3491 92.0241 53.9869 91.5043C53.6246 90.9844 53.4265 90.392 53.3924 89.7273H54.9265C54.9862 90.3196 55.2546 90.8097 55.7319 91.1974C56.2134 91.581 56.7887 91.7727 57.4577 91.7727C57.9947 91.7727 58.4719 91.647 58.8896 91.3956C59.3114 91.1442 59.6417 90.799 59.8803 90.3601C60.1232 89.9169 60.2447 89.4162 60.2447 88.858C60.2447 88.2869 60.119 87.7777 59.8675 87.3303C59.6204 86.8786 59.2795 86.5227 58.8448 86.2628C58.4102 86.0028 57.9137 85.8707 57.3555 85.8665C56.9549 85.8622 56.5437 85.924 56.1218 86.0518C55.6999 86.1754 55.3526 86.3352 55.0799 86.5312L53.5969 86.3523L54.3896 79.9091H61.1907V81.3153H55.7191L55.2589 85.1761H55.3356C55.604 84.9631 55.9407 84.7862 56.3455 84.6456C56.7504 84.505 57.1722 84.4347 57.6112 84.4347C58.4123 84.4347 59.1261 84.6264 59.7525 85.0099C60.3832 85.3892 60.8775 85.9091 61.2354 86.5696C61.5977 87.2301 61.7788 87.9844 61.7788 88.8324C61.7788 89.6676 61.5913 90.4134 61.2163 91.0696C60.8455 91.7216 60.3342 92.2372 59.6822 92.6165C59.0302 92.9915 58.2887 93.179 57.4577 93.179Z" fill="white"/>
</g>
<defs>
<clipPath id="clip0_327_1952">
<rect width="64" height="100" fill="white"/>
</clipPath>
<clipPath id="clip1_327_1952">
<rect width="64" height="64" fill="white"/>
</clipPath>
</defs>
</svg>
