<svg xmlns="http://www.w3.org/2000/svg" viewBox="0 0 48 48" width="25" height="25"><linearGradient id="a" x1="18.2" x2="34.2" y1="2.4" y2="46.2" gradientUnits="userSpaceOnUse"><stop offset="0" stop-color="#f09701"/><stop offset="1" stop-color="#e36001"/></linearGradient><path fill="url(#a)" d="m7 7 3 30 2 3 11 3h2l11-3 2-3 3-30-2-2H9L7 7z"/><path fill="#f09601" d="M24 8v32l10-3 1-2 3-26-1-1H24z"/><path fill="#fff" d="M24 25v-4h9l-1 12-8 2v-4l4-1v-5h-4zm9-8v-4h-9v4h9z"/><path fill="#d6e0e9" d="M24 31v4l-8-2v-6h4v3l4 1zm-5-14h5v-4h-9l1 12h8v-4h-5v-4z"/><path d="M33 13v4H19v4h14l-1 12-8 2-8-2v-6h4v3l4 1 4-2v-4H16l-1-12h18m1-1H14v1l1 12v8h1l8 3 8-3h1l1-12v-1H20v-2h14v-6zM21 26h6v3l-3 1-3-1v-3z" opacity=".1"/><path d="M33 13v4H19v4h14l-1 12-8 2-8-2v-6h4v3l4 1 4-2v-4H16l-1-12h18m1 0H14l1 12h13v4l-4 1-4-1v-2h-5l1 6 8 3 8-3 1-12v-1H20v-3h13l1-4z" opacity=".1"/></svg>