<svg width="88" height="100" fill="none" xmlns="http://www.w3.org/2000/svg"><g clip-path="url(#a)"><path d="M12 64V0h64v64H12Z" fill="#FFD600"/><path d="M53.845 47.906c1.23 1.998 2.567 3.913 5.4 3.913 2.378 0 3.626-1.183 3.626-2.818 0-1.957-1.29-2.652-3.908-3.792l-1.434-.612c-4.14-1.756-6.895-3.957-6.895-8.606 0-4.284 3.28-7.545 8.406-7.545 3.65 0 6.272 1.264 8.163 4.574l-4.469 2.857c-.983-1.756-2.046-2.448-3.694-2.448-1.682 0-2.747 1.062-2.747 2.448 0 1.714 1.067 2.407 3.529 3.469l1.435.611c4.88 2.079 7.632 4.201 7.632 8.973 0 5.141-4.06 7.959-9.511 7.959-5.332 0-8.36-2.676-10.045-5.988l4.512-2.995Zm-20.597.146c.9 1.61 2.267 2.85 4.233 2.85 1.88 0 2.963-.744 2.963-3.633V28.445h5.926V48.18c0 5.985-3.472 8.709-8.543 8.709-4.581 0-7.888-3.104-9.235-5.988l4.656-2.85Z" fill="#000001"/><path d="M6.597 79.91h1.585v9.357c0 .835-.154 1.545-.46 2.129a3.127 3.127 0 0 1-1.298 1.33c-.558.302-1.217.453-1.975.453-.716 0-1.353-.13-1.911-.39a3.15 3.15 0 0 1-1.317-1.125c-.32-.486-.48-1.063-.48-1.732h1.56c0 .37.092.694.275.971.187.273.443.486.767.64.324.153.693.23 1.106.23.456 0 .844-.096 1.163-.288a1.82 1.82 0 0 0 .729-.844c.17-.375.256-.833.256-1.374v-9.358Zm7.446 13.32a3.99 3.99 0 0 1-1.694-.351 2.907 2.907 0 0 1-1.208-1.03c-.298-.451-.447-.997-.447-1.636 0-.562.11-1.018.332-1.368.222-.353.518-.63.889-.83.37-.201.78-.35 1.227-.448.452-.102.906-.183 1.362-.243.596-.077 1.08-.134 1.45-.173.375-.042.648-.113.819-.21.174-.099.262-.27.262-.512v-.051c0-.63-.173-1.12-.518-1.47-.34-.35-.859-.525-1.553-.525-.72 0-1.285.158-1.694.474-.41.315-.697.651-.863 1.01l-1.432-.512c.256-.597.597-1.061 1.023-1.393.43-.337.899-.571 1.406-.704a5.841 5.841 0 0 1 1.509-.204c.315 0 .677.038 1.086.115a3.48 3.48 0 0 1 1.196.454c.387.23.71.577.965 1.042.256.464.383 1.086.383 1.866V93h-1.508v-1.33h-.077a2.656 2.656 0 0 1-.511.684c-.239.243-.556.45-.953.62-.396.17-.88.256-1.45.256Zm.23-1.355c.597 0 1.1-.117 1.509-.352a2.393 2.393 0 0 0 1.253-2.077v-1.38c-.064.076-.205.146-.422.21-.213.06-.46.113-.742.16a33.763 33.763 0 0 1-1.444.192 5.772 5.772 0 0 0-1.1.25c-.336.11-.609.278-.818.504-.204.222-.307.524-.307.908 0 .524.194.92.582 1.189.392.264.889.396 1.49.396Zm14.7-8.693L25.344 93H23.81l-3.63-9.818h1.636l2.71 7.824h.102l2.71-7.824h1.637Zm4.582 10.048a3.99 3.99 0 0 1-1.694-.351 2.906 2.906 0 0 1-1.208-1.03c-.298-.451-.447-.997-.447-1.636 0-.562.11-1.018.332-1.368.222-.353.518-.63.889-.83.37-.201.78-.35 1.227-.448.451-.102.905-.183 1.361-.243.597-.077 1.08-.134 1.451-.173.375-.042.648-.113.818-.21.175-.099.263-.27.263-.512v-.051c0-.63-.173-1.12-.518-1.47-.341-.35-.859-.525-1.554-.525-.72 0-1.284.158-1.693.474-.41.315-.697.651-.863 1.01l-1.432-.512c.256-.597.597-1.061 1.023-1.393.43-.337.899-.571 1.406-.704a5.841 5.841 0 0 1 1.508-.204c.316 0 .678.038 1.087.115.413.073.812.224 1.195.454.388.23.71.577.965 1.042.256.464.384 1.086.384 1.866V93h-1.508v-1.33h-.077a2.658 2.658 0 0 1-.511.684c-.24.243-.557.45-.953.62-.396.17-.88.256-1.451.256Zm.23-1.355c.597 0 1.1-.117 1.509-.352a2.393 2.393 0 0 0 1.253-2.077v-1.38c-.064.076-.205.146-.422.21-.213.06-.46.113-.742.16a33.842 33.842 0 0 1-1.444.192 5.772 5.772 0 0 0-1.1.25c-.337.11-.61.278-.818.504-.205.222-.307.524-.307.908 0 .524.194.92.582 1.189.392.264.888.396 1.49.396Zm13.978-6.494-1.355.383a2.518 2.518 0 0 0-.377-.658 1.83 1.83 0 0 0-.665-.537c-.281-.14-.641-.211-1.08-.211-.601 0-1.102.138-1.502.415-.397.273-.595.62-.595 1.042 0 .375.136.672.41.889.272.217.698.398 1.278.543l1.457.358c.878.213 1.532.54 1.962.978.43.435.646.995.646 1.681 0 .563-.162 1.066-.486 1.509-.32.443-.767.792-1.342 1.048-.575.256-1.244.383-2.007.383-1.002 0-1.83-.217-2.487-.651-.656-.435-1.072-1.07-1.246-1.905l1.432-.358c.136.528.394.924.773 1.189.383.264.884.396 1.502.396.703 0 1.261-.15 1.675-.447.417-.303.626-.665.626-1.087 0-.341-.119-.626-.358-.857-.238-.234-.605-.409-1.1-.524l-1.636-.383c-.899-.213-1.56-.544-1.981-.991-.418-.452-.626-1.016-.626-1.694 0-.554.155-1.044.466-1.47.316-.426.744-.76 1.285-1.004.545-.243 1.163-.364 1.854-.364.971 0 1.734.213 2.288.64.558.425.955.988 1.189 1.687Zm6.438 7.823c-.92 0-1.713-.217-2.377-.651-.665-.435-1.177-1.034-1.535-1.797-.358-.762-.537-1.634-.537-2.614 0-.997.184-1.877.55-2.64.37-.767.887-1.366 1.547-1.796.665-.435 1.44-.652 2.327-.652.69 0 1.312.128 1.866.383a3.574 3.574 0 0 1 1.362 1.074c.353.46.573.998.658 1.611h-1.508c-.115-.447-.371-.844-.767-1.189-.392-.35-.92-.524-1.586-.524-.588 0-1.103.153-1.547.46-.438.303-.782.731-1.029 1.285-.242.55-.364 1.195-.364 1.937 0 .758.12 1.419.358 1.981.243.563.584 1 1.023 1.31.443.312.963.467 1.56.467.391 0 .747-.068 1.067-.204.32-.136.59-.332.812-.588.221-.256.379-.563.473-.92h1.508a3.494 3.494 0 0 1-.633 1.565c-.332.46-.773.827-1.323 1.1-.545.268-1.18.402-1.905.402ZM60.267 93v-9.818h1.458v1.483h.102c.179-.486.503-.88.972-1.183a2.86 2.86 0 0 1 1.585-.454c.11 0 .25.002.415.007.167.004.292.01.377.019v1.534a4.466 4.466 0 0 0-.351-.057 3.462 3.462 0 0 0-.569-.045c-.477 0-.903.1-1.278.3-.371.196-.665.469-.883.818-.212.346-.32.74-.32 1.183V93h-1.508Zm6.698 0v-9.818h1.508V93h-1.508Zm.767-11.454c-.294 0-.548-.1-.76-.301a.965.965 0 0 1-.314-.722c0-.281.104-.522.313-.723.213-.2.467-.3.76-.3.295 0 .546.1.755.3.213.2.32.442.32.723a.956.956 0 0 1-.32.722c-.209.2-.46.3-.754.3Zm3.504 15.136v-13.5h1.457v1.56h.18c.11-.171.264-.388.46-.653.2-.268.486-.507.856-.715.375-.213.882-.32 1.522-.32.826 0 1.555.207 2.186.62.63.413 1.122 1 1.476 1.758.354.758.53 1.653.53 2.684 0 1.04-.176 1.942-.53 2.704-.354.759-.844 1.347-1.47 1.765-.626.413-1.349.62-2.167.62-.63 0-1.136-.105-1.515-.314-.379-.213-.67-.454-.876-.722a9.68 9.68 0 0 1-.472-.677h-.128v5.19h-1.509Zm1.483-8.591c0 .741.109 1.396.326 1.962.217.563.535 1.004.953 1.323.417.316.928.473 1.534.473.63 0 1.157-.166 1.578-.498.427-.337.746-.788.96-1.355a5.316 5.316 0 0 0 .325-1.905c0-.69-.106-1.313-.32-1.867-.208-.558-.526-.999-.952-1.323-.422-.328-.952-.492-1.591-.492-.614 0-1.13.156-1.547.467-.418.306-.733.737-.946 1.29-.213.55-.32 1.192-.32 1.925Zm13.756-4.91v1.28h-5.088v-1.28h5.088ZM82.87 80.83h1.508v9.359c0 .426.062.745.186.958a.96.96 0 0 0 .485.422c.2.068.412.103.633.103.166 0 .303-.01.41-.026l.255-.051.307 1.355a3.074 3.074 0 0 1-.428.115 3.154 3.154 0 0 1-.697.064c-.426 0-.844-.092-1.253-.275a2.489 2.489 0 0 1-1.01-.837c-.264-.375-.396-.848-.396-1.42V80.83Z" fill="white"/></g><defs><clipPath id="a"><path fill="#fff" d="M0 0h88v100H0z"/></clipPath></defs></svg>