<svg xmlns="http://www.w3.org/2000/svg" viewBox="0 0 256 256" width="30" height="30"><path d="M24 4H6a2 2 0 0 0-2 2v18c0 1.1.9 2 2 2h18a2 2 0 0 0 2-2V6a2 2 0 0 0-2-2zM11 22H8v-9.5h3zM9.4 11.2a1.7 1.7 0 1 1 0-3.5 1.7 1.7 0 0 1 0 3.5zM22 22h-3v-4.6c0-1.1 0-2.5-1.5-2.5s-1.7 1.2-1.7 2.4V22h-3v-9.5h2.8v1.3c.5-.7 1.4-1.5 2.9-1.5 3 0 3.5 2 3.5 4.5z" transform="scale(8.53333)" fill="#fff" stroke-miterlimit="10" font-family="none" font-weight="none" font-size="none" text-anchor="none" style="mix-blend-mode:normal"/></svg>