<svg width="85" height="100" fill="none" xmlns="http://www.w3.org/2000/svg"><g clip-path="url(#a)"><g clip-path="url(#b)"><path d="M48.0323 7.13325C45.3343 3.94632 43.0111.709589 42.5365.0373468c-.05-.0497957-.125-.0497957-.1749 0C41.8869.709589 39.5637 3.94632 36.8657 7.13325 13.7084 36.5376 40.513 56.3813 40.513 56.3813l.2248.1493c.1999 3.0626.6995 7.4694.6995 7.4694h1.9985s.4996-4.382.6994-7.4694l.2248-.1741c.025 0 26.8296-19.8189 3.6723-49.22325ZM42.4365 55.933s-1.1991-1.0207-1.5238-1.5437v-.0496l1.4489-32.0188c0-.0996.1499-.0996.1499 0l1.4489 32.0188v.0496c-.3248.523-1.5239 1.5437-1.5239 1.5437Z" fill="#00684A"/></g><path d="M1.90993 79.9091h1.89205l4.44886 10.8665h.15341l4.44885-10.8665h1.8921V93h-1.483v-9.946h-.1278L9.04346 93H7.61164l-4.09091-9.946h-.12784V93H1.90993V79.9091ZM21.7077 93.2045c-.8864 0-1.6641-.2109-2.3331-.6328-.6648-.4218-1.1847-1.012-1.5597-1.7706-.3707-.7585-.5561-1.6449-.5561-2.6591 0-1.0227.1854-1.9154.5561-2.6782.375-.7628.8949-1.3551 1.5597-1.777.669-.4219 1.4467-.6328 2.3331-.6328.8864 0 1.6619.2109 2.3267.6328.669.4219 1.1889 1.0142 1.5597 1.777.375.7628.5625 1.6555.5625 2.6782 0 1.0142-.1875 1.9006-.5625 2.6591-.3708.7586-.8907 1.3488-1.5597 1.7706-.6648.4219-1.4403.6328-2.3267.6328Zm0-1.3551c.6733 0 1.2273-.1726 1.6619-.5177.4347-.3452.7564-.799.9652-1.3615.2088-.5625.3132-1.1719.3132-1.8282 0-.6562-.1044-1.2677-.3132-1.8345-.2088-.5667-.5305-1.0248-.9652-1.3743-.4346-.3494-.9886-.5241-1.6619-.5241-.6733 0-1.2273.1747-1.6619.5241-.4347.3495-.7564.8076-.9652 1.3743-.2088.5668-.3132 1.1783-.3132 1.8345 0 .6563.1044 1.2657.3132 1.8282.2088.5625.5305 1.0163.9652 1.3615.4346.3451.9886.5177 1.6619.5177Zm8.2601-4.7556V93h-1.5085v-9.8182h1.4574v1.5341h.1278c.2301-.4986.5796-.8991 1.0483-1.2017.4688-.3068 1.0739-.4602 1.8154-.4602.6647 0 1.2464.1363 1.745.4091.4986.2684.8864.6775 1.1633 1.2272.277.5455.4155 1.2358.4155 2.0711V93h-1.5085v-6.1364c0-.7713-.2003-1.3721-.6009-1.8025-.4005-.4347-.9502-.652-1.6491-.652-.4815 0-.9119.1044-1.2912.3132-.375.2088-.6712.5135-.8885.9141-.2173.4005-.326.8863-.326 1.4574Zm12.9839 9.7926c-.7287 0-1.3552-.0938-1.8793-.2813-.5241-.1832-.9609-.4261-1.3104-.7287-.3451-.2983-.62-.6179-.8245-.9588l1.2017-.8437c.1363.1789.3089.3835.5177.6136.2088.2344.4943.4368.8566.6072.3664.1748.8458.2621 1.4382.2621.7926 0 1.4467-.1917 1.9623-.5753.5156-.3835.7735-.9843.7735-1.8025v-1.9943h-.1279c-.1108.1789-.2685.4005-.473.6647-.2003.26-.4901.4922-.8693.6968-.375.2002-.8821.3004-1.5213.3004-.7926 0-1.5043-.1875-2.135-.5625-.6264-.375-1.1228-.9205-1.4893-1.6364-.3622-.7159-.5433-1.5852-.5433-2.6079 0-1.0057.1768-1.8814.5305-2.6272.3537-.75.8459-1.3295 1.4766-1.7386.6306-.4133 1.3593-.62 2.186-.62.6393 0 1.1464.1065 1.5214.3196.3792.2088.669.4474.8693.7159.2045.2642.3622.4815.473.652h.1534v-1.5597h1.4574v10.0994c0 .8438-.1918 1.5299-.5753 2.0583-.3793.5327-.8906.9226-1.5341 1.1697-.6392.2515-1.3508.3772-2.1349.3772Zm-.0512-5.3949c.6051 0 1.1165-.1385 1.5341-.4155.4176-.277.7351-.6754.9524-1.1953.2174-.5199.326-1.1421.326-1.8665 0-.7074-.1065-1.3317-.3196-1.8729-.213-.5412-.5284-.9652-.946-1.272-.4176-.3068-.9332-.4602-1.5469-.4602-.6392 0-1.1719.1619-1.598.4858-.4219.3238-.7393.7585-.9524 1.304-.2088.5454-.3132 1.1505-.3132 1.8153 0 .6818.1065 1.2848.3196 1.809.2173.5198.5369.9289.9588 1.2272.4261.2941.9545.4411 1.5852.4411Zm11.0455 1.713c-.8864 0-1.6641-.2109-2.3331-.6328-.6648-.4218-1.1847-1.012-1.5597-1.7706-.3707-.7585-.5561-1.6449-.5561-2.6591 0-1.0227.1854-1.9154.5561-2.6782.375-.7628.8949-1.3551 1.5597-1.777.669-.4219 1.4467-.6328 2.3331-.6328.8863 0 1.6619.2109 2.3267.6328.669.4219 1.1889 1.0142 1.5596 1.777.375.7628.5625 1.6555.5625 2.6782 0 1.0142-.1875 1.9006-.5625 2.6591-.3707.7586-.8906 1.3488-1.5596 1.7706-.6648.4219-1.4404.6328-2.3267.6328Zm0-1.3551c.6733 0 1.2273-.1726 1.6619-.5177.4347-.3452.7564-.799.9652-1.3615.2088-.5625.3132-1.1719.3132-1.8282 0-.6562-.1044-1.2677-.3132-1.8345-.2088-.5667-.5305-1.0248-.9652-1.3743-.4346-.3494-.9886-.5241-1.6619-.5241-.6733 0-1.2273.1747-1.662.5241-.4346.3495-.7563.8076-.9652 1.3743-.2088.5668-.3132 1.1783-.3132 1.8345 0 .6563.1044 1.2657.3132 1.8282.2089.5625.5306 1.0163.9652 1.3615.4347.3451.9887.5177 1.662.5177ZM64.9419 93h-4.0398V79.9091h4.2188c1.2699 0 2.3565.2621 3.2599.7862.9034.5199 1.5959 1.2678 2.0774 2.2436.4816.9716.7223 2.135.7223 3.4901 0 1.3636-.2429 2.5376-.7287 3.522-.4858.9801-1.1931 1.7344-2.1221 2.2628-.929.5241-2.0583.7862-3.3878.7862Zm-2.4546-1.4062h2.3523c1.0824 0 1.9794-.2089 2.6911-.6265.7116-.4176 1.2422-1.012 1.5916-1.7834.3494-.7713.5241-1.6896.5241-2.7549 0-1.0568-.1725-1.9666-.5177-2.7294-.3452-.7671-.8608-1.3551-1.5469-1.7642-.6861-.4134-1.5405-.6201-2.5632-.6201h-2.5313v10.2785ZM73.8396 93V79.9091h4.5767c.912 0 1.6641.1577 2.2564.473.5923.3111 1.0334.7308 1.3232 1.2592.2897.5242.4346 1.1059.4346 1.7451 0 .5625-.1001 1.027-.3004 1.3934-.196.3665-.456.6563-.7798.8693-.3196.2131-.6669.3708-1.0419.4731v.1278c.4005.0256.8032.1662 1.2081.4219.4048.2557.7436.6221 1.0163 1.0994.2727.4773.4091 1.0611.4091 1.7514 0 .6563-.1492 1.2465-.4474 1.7706-.2983.5242-.7692.9397-1.4127 1.2465-.6435.3068-1.4808.4602-2.5121.4602h-4.7301Zm1.5852-1.4062h3.1449c1.0355 0 1.7706-.2003 2.2053-.6009.4389-.4048.6584-.8949.6584-1.4702 0-.4432-.113-.8522-.3388-1.2272-.2259-.3793-.5476-.6819-.9652-.9077-.4176-.2301-.9119-.3452-1.483-.3452h-3.2216v4.5512Zm0-5.9319h2.9404c.4773 0 .9077-.0937 1.2912-.2812.3878-.1875.6946-.4517.9204-.7926.2302-.3409.3452-.7415.3452-1.2017 0-.5753-.2003-1.0632-.6008-1.4638-.4006-.4048-1.0356-.6073-1.9049-.6073h-2.9915v4.3466Z" fill="white"/></g><defs><clipPath id="a"><path fill="#fff" transform="translate(.324707)" d="M0 0h84v100H0z"/></clipPath><clipPath id="b"><path fill="#fff" transform="translate(27.4409)" d="M0 0h29.7674v64H0z"/></clipPath></defs></svg>