<svg xmlns="http://www.w3.org/2000/svg" viewBox="0 0 128 128"><path fill-rule="evenodd" clip-rule="evenodd" fill="#439934" d="M88 42.8a62.9 62.9 0 0 1 2.1 32.4l-.1.5h-1.2l-10 1.6L68.5 79c-1.2.2-2.7 0-3.2 1.7H65l.2-10-.2-24.2 1.6-.3 7.9-1.3 9.4-1.5 4.1-.6z"/><path fill-rule="evenodd" clip-rule="evenodd" fill="#45A538" d="m61.7 110-5-4.3A62.6 62.6 0 0 1 38.4 76c-.8-3.2-1.4-6.5-1.6-9.8-.1-2.3-.3-4.6-.1-7a82 82 0 0 1 3-18.1l.2-.1.5.7a3889 3889 0 0 1 5.2 15.5l16.4 49 .6.8-.9 3z"/><path fill-rule="evenodd" clip-rule="evenodd" fill="#46A037" d="m88 42.8-4.1.6-9.4 1.5-7.9 1.3-1.6.2v-1l-.1-2.6-.2-16.4a1259 1259 0 0 0-.4-16.7L64 6.3v-2l2.5 4.8c1.3 2.5 3.4 4.3 5.3 6.3 7.6 7.9 13 17 16.2 27.4z"/><path fill-rule="evenodd" clip-rule="evenodd" fill="#409433" d="m65 80.8.3-.1c.5-1.7 2-1.5 3.2-1.7l10.3-1.7 10-1.6H90c-.6 2.2-1.1 4.5-2 6.7-.8 2.4-1.9 4.8-3 7.2a49.1 49.1 0 0 1-6.4 9.7 90 90 0 0 1-6.2 6.6c-1.2 1.1-2.6 2-3.9 3.1l-.3-.2-1.2-1-1.3-2.8a41.4 41.4 0 0 1-1.4-9.8v-.6l.2-2.4.2-2.5.3-9z"/><path fill-rule="evenodd" clip-rule="evenodd" fill="#4FAA41" d="M65 80.8c0 3-.2 6-.3 8.9l-.2 2.5-.8.3-5-15L50.5 53a4498.9 4498.9 0 0 0-6.7-19.8c-.1-.4-.4-.6-.6-.9l4.8-9 .5.9a6167.5 6167.5 0 0 1 6.8 20.1L64 70.4l.5 1 .7-.7-.2 10z"/><path fill-rule="evenodd" clip-rule="evenodd" fill="#4AA73C" d="M43.2 32.2c.2.3.5.5.6.9a4498.9 4498.9 0 0 1 6.7 19.8l8.2 24.7 5 14.9.8-.3-.2 2.4-.1.6-.8 8-.8 3.9-.6-.9-16.4-48.9a3889 3889 0 0 0-5.2-15.5c0-.3-.3-.5-.5-.7l3.3-8.9z"/><path fill-rule="evenodd" clip-rule="evenodd" fill="#57AE47" d="m65.2 70.7-.7.8-.5-1-8.7-26.3a6167.5 6167.5 0 0 0-6.8-20.1c0-.3-.3-.6-.5-.9l6.1-8c.2.3.5.5.6.8l5 14.8 4.6 13.8c.1.3.5.5.7.8v1l.2 24.3z"/><path fill-rule="evenodd" clip-rule="evenodd" fill="#60B24F" d="M65 45.4c-.2-.3-.6-.5-.7-.8l-4.6-13.8-5-14.8c-.1-.3-.4-.5-.6-.7 2-2 3.9-4 6-5.8 1.8-1.6 3.2-3.4 3.3-6l.1-.5.5 1.3v2l.3 3.4a256.6 256.6 0 0 1 .4 16.7l.2 16.4.1 2.6z"/><path fill-rule="evenodd" clip-rule="evenodd" fill="#A9AA88" d="m62.6 107 .8-3.9.8-8h.1a41.4 41.4 0 0 0 1.4 10c-.2.1-.4.3-.5.6L63 112c0 .3-.3.5-.5.7l-.8-2.5.9-3z"/><path fill-rule="evenodd" clip-rule="evenodd" fill="#B6B598" d="M62.5 112.6c.2-.2.5-.4.5-.7l2.2-6.2c0-.3.3-.5.5-.7l1.3 2.8-.8 1-2.4 7c0 .4-.4.6-.6.8l-.7-4z"/><path fill-rule="evenodd" clip-rule="evenodd" fill="#C2C1A7" d="M63.2 116.6c.2-.2.5-.4.6-.7l2.4-7c.2-.5.5-.8.8-1.1l1.2 1c-.6.6-1 1.3-.7 2.1l-.4 1.2-.5.6-2.5 7.3c0 .3-.4.5-.6.8l-.3-4.2z"/><path fill-rule="evenodd" clip-rule="evenodd" fill="#CECDB7" d="M63.5 120.8c.2-.3.5-.5.6-.8l2.5-7.3c0-.2.3-.4.5-.6l-.5 5.6-.4.4-1.7 4.9-.5 1c-.2-.3-.5-.5-.5-.7v-2.5z"/><path fill-rule="evenodd" clip-rule="evenodd" fill="#DBDAC7" d="m64 124 .5-1 1.7-4.9c0-.2.3-.3.4-.4v3.6l-1.2 3.1-1.4-.5z"/><path fill-rule="evenodd" clip-rule="evenodd" fill="#EBE9DC" d="m65.4 124.4 1.2-3.1.2 3.7-1.4-.6z"/><path fill-rule="evenodd" clip-rule="evenodd" fill="#CECDB7" d="M67.5 110.9c-.2-.8 0-1.5.7-2.1l.3.2-1 1.9z"/><path fill-rule="evenodd" clip-rule="evenodd" fill="#4FAA41" d="M64.3 95.2h-.1l.1-.6v.6z"/></svg>