<svg width="65" height="100" fill="none" xmlns="http://www.w3.org/2000/svg"><g clip-path="url(#a)"><g clip-path="url(#b)"><mask id="c" style="mask-type:alpha" maskUnits="userSpaceOnUse" x="0" y="0" width="65" height="64"><path d="M32.4399 64c17.6732 0 32-14.3269 32-32 0-17.6731-14.3268-32-32-32C14.7668 0 .439941 14.3269.439941 32c0 17.6731 14.326859 32 31.999959 32Z" fill="#000"/></mask><g mask="url(#c)"><path d="M32.4402 62.9333c17.084 0 30.9333-13.8493 30.9333-30.9333S49.5242 1.06665 32.4402 1.06665 1.50684 14.916 1.50684 32c0 17.084 13.84936 30.9333 30.93336 30.9333Z" fill="#000" stroke="#fff" stroke-width="6"/><path d="M53.5985 56.0071 25.024 19.2h-5.3839v25.5893h4.3071V24.6697l26.2704 33.9418c1.1854-.7932 2.3146-1.664 3.3809-2.6044Z" fill="url(#d)"/><path d="M45.5958 19.2h-4.2667v25.6h4.2667V19.2Z" fill="url(#e)"/></g></g><path d="M14.9059 79.9091V93h-1.5341L6.23824 82.7216H6.1104V93H4.52517V79.9091h1.53409l7.15914 10.304h.1278v-10.304h1.5597Zm7.0839 13.2954c-.946 0-1.762-.2088-2.4481-.6264-.6818-.4219-1.2081-1.0099-1.5789-1.7642-.3664-.7585-.5497-1.6406-.5497-2.6463s.1833-1.892.5497-2.6591c.3708-.7713.8864-1.3721 1.5469-1.8025.6648-.4347 1.4404-.652 2.3267-.652.5114 0 1.0164.0852 1.5149.2557.4986.1704.9525.4474 1.3615.8309.4091.3793.7351.8821.978 1.5085.2429.6265.3644 1.3978.3644 2.314v.6392H18.487v-1.304h6.0341c0-.554-.1108-1.0483-.3324-1.483-.2173-.4346-.5284-.7777-.9332-1.0291-.4006-.2514-.8736-.3771-1.4191-.3771-.6008 0-1.1207.1491-1.5596.4474-.4347.2941-.7692.6776-1.0036 1.1506-.2344.473-.3515.9801-.3515 1.5213v.8693c0 .7415.1278 1.3701.3835 1.8857.2599.5113.62.9013 1.0802 1.1697.4603.2642.9951.3963 1.6044.3963.3963 0 .7543-.0554 1.0739-.1662.3239-.115.603-.2855.8374-.5113.2343-.2301.4154-.5157.5433-.8566l1.4574.4091c-.1534.4944-.4113.929-.7735 1.304-.3622.3707-.8096.6605-1.3423.8693-.5327.2046-1.1314.3068-1.7962.3068Zm7.2214-10.0227 2.3523 4.0142 2.3523-4.0142h1.7386l-3.1704 4.9091L35.6544 93h-1.7386l-2.3523-3.8097L29.2112 93h-1.7386l3.1193-4.9091-3.1193-4.9091h1.7386Zm12.8656 0v1.2784h-5.088v-1.2784h5.088Zm-3.6051-2.3523h1.5085v9.358c0 .4261.0618.7457.1854.9588.1279.2088.2898.3494.4858.4219.2003.0682.4112.1023.6328.1023.1662 0 .3026-.0086.4091-.0256.1065-.0213.1918-.0384.2557-.0511l.3068 1.3551c-.1023.0383-.245.0767-.4283.115-.1832.0426-.4154.0639-.6967.0639-.4261 0-.8437-.0916-1.2528-.2748-.4049-.1833-.7415-.4624-1.01-.8374-.2642-.375-.3963-.848-.3963-1.419v-9.7671Zm6.9737 12.2728c-.3153 0-.5859-.113-.8117-.3388-.2259-.2259-.3388-.4965-.3388-.8118 0-.3153.1129-.5859.3388-.8118.2258-.2258.4964-.3388.8117-.3388.3154 0 .586.113.8118.3388.2259.2259.3388.4965.3388.8118 0 .2088-.0533.4006-.1598.5753-.1023.1747-.2408.3153-.4155.4219-.1704.1022-.3622.1534-.5753.1534Zm3.8576-9.9205h1.5086v10.5341c0 .6051-.1044 1.1293-.3132 1.5725-.2046.4431-.5157.7862-.9333 1.0291-.4133.2429-.9354.3643-1.566.3643h-.3069v-1.4062h.2813c.4602 0 .7969-.1364 1.0099-.4091.2131-.2685.3196-.652.3196-1.1506V83.1818Zm.7415-1.6363c-.294 0-.5476-.1002-.7606-.3005-.2088-.2003-.3132-.441-.3132-.7223 0-.2812.1044-.522.3132-.7223.213-.2003.4666-.3004.7606-.3004.2941 0 .5455.1001.7543.3004.2131.2003.3196.4411.3196.7223 0 .2813-.1065.522-.3196.7223-.2088.2003-.4602.3005-.7543.3005Zm10.4846 3.8352-1.3551.3835c-.0853-.2258-.211-.4453-.3772-.6584-.1619-.2173-.3835-.3963-.6647-.5369-.2813-.1406-.6414-.2109-1.0803-.2109-.6008 0-1.1016.1384-1.5021.4154-.3963.2728-.5945.6201-.5945 1.0419 0 .375.1364.6712.4091.8885.2727.2174.6989.3985 1.2784.5434l1.4574.3579c.8778.2131 1.532.5391 1.9624.978.4304.4347.6456.995.6456 1.6811 0 .5625-.162 1.0653-.4858 1.5085-.3196.4432-.7671.7926-1.3424 1.0483-.5753.2557-1.2443.3835-2.0071.3835-1.0014 0-1.8302-.2173-2.4865-.6519-.6562-.4347-1.0717-1.0696-1.2464-1.9049l1.4318-.3579c.1364.5284.3942.9247.7734 1.1889.3835.2642.8843.3963 1.5022.3963.7031 0 1.2613-.1491 1.6747-.4474.4176-.3026.6264-.6648.6264-1.0867 0-.3409-.1193-.6264-.358-.8565-.2386-.2344-.6051-.4091-1.0994-.5242l-1.6364-.3835c-.8991-.2131-1.5596-.5433-1.9815-.9908-.4176-.4517-.6264-1.0163-.6264-1.6939 0-.5539.1555-1.044.4666-1.4701.3153-.4262.7436-.7607 1.2848-1.0036.5455-.2429 1.1634-.3643 1.8537-.3643.9716 0 1.7344.213 2.2884.6392.5582.4261.9545.9886 1.1889 1.6875Z" fill="white"/></g><defs><linearGradient id="d" x1="39.1957" y1="41.4222" x2="51.8179" y2="57.0666" gradientUnits="userSpaceOnUse"><stop stop-color="#fff"/><stop offset="1" stop-color="#fff" stop-opacity="0"/></linearGradient><linearGradient id="e" x1="43.4624" y1="19.2" x2="43.391" y2="38" gradientUnits="userSpaceOnUse"><stop stop-color="#fff"/><stop offset="1" stop-color="#fff" stop-opacity="0"/></linearGradient><clipPath id="a"><path fill="#fff" transform="translate(.439941)" d="M0 0h64v100H0z"/></clipPath><clipPath id="b"><path fill="#fff" transform="translate(.439941)" d="M0 0h64v64H0z"/></clipPath></defs></svg>