<svg width="66" height="100" fill="none" xmlns="http://www.w3.org/2000/svg"><g clip-path="url(#a)"><g clip-path="url(#b)" fill="#5FA04E"><path d="M32.9132 64c-.858 0-1.6587-.2332-2.4023-.6414l-7.6073-4.6069c-1.144-.6415-.572-.8747-.2288-.9914 1.5443-.5248 1.8303-.6414 3.4319-1.5744.1715-.1167.4003-.0584.5719.0583l5.8342 3.5572c.2288.1166.5148.1166.6864 0l22.8219-13.4707c.2288-.1167.3432-.3499.3432-.6415V18.806c0-.2915-.1144-.5248-.3432-.6414L33.1992 4.75223c-.2288-.11662-.5148-.11662-.6864 0L9.69085 18.1646c-.22878.1166-.34319.4082-.34319.6414v26.8832c0 .2332.11441.5248.34319.6415l6.23455 3.6738c3.3747 1.7494 5.491-.2916 5.491-2.3326V21.1386c0-.3498.286-.6997.6864-.6997h2.9171c.3432 0 .6863.2916.6863.6997v26.5333c0 4.6069-2.4595 7.2894-6.7493 7.2894-1.3155 0-2.3451 0-5.2622-1.4579l-6.00577-3.4989c-1.48714-.8748-2.40231-2.5076-2.40231-4.257V18.8644c0-1.7494.91517-3.3822 2.40231-4.257L30.5109 1.13672c1.43-.816407 3.3747-.816407 4.8046 0L58.1374 14.6074c1.4872.8748 2.4024 2.5076 2.4024 4.257v26.8831c0 1.7494-.9152 3.3822-2.4024 4.257L35.3155 63.4752c-.6864.2916-1.5443.5248-2.4023.5248Z"/><path d="M40.0058 45.5142c-10.0097 0-12.0688-4.6652-12.0688-8.6306 0-.3499.286-.6997.6863-.6997h2.9744c.3431 0 .6292.2332.6292.5831.4575 3.0906 1.7731 4.6068 7.836 4.6068 4.8046 0 6.8638-1.108 6.8638-3.7321 0-1.5162-.572-2.6242-8.065-3.3823-6.2345-.6415-10.1239-2.041-10.1239-7.1144 0-4.7235 3.8894-7.5226 10.41-7.5226 7.3213 0 10.9247 2.5659 11.3823 8.1641 0 .175-.0572.3499-.1715.5249-.1144.1165-.2861.2332-.4577.2332h-3.0314c-.286 0-.572-.2332-.6292-.5249-.6864-3.2073-2.4595-4.257-7.1497-4.257-5.2623 0-5.8914 1.8662-5.8914 3.2657 0 1.6911.7436 2.216 7.8361 3.149 7.0353.933 10.3528 2.2743 10.3528 7.2894 0 5.1316-4.1754 8.0474-11.3823 8.0474Z"/></g><path d="M12.2799 79.9091V93h-1.5341L3.61226 82.7216h-.12784V93H1.89919V79.9091h1.53409l7.15912 10.304h.1278v-10.304h1.5597Zm6.9561 13.2954c-.8863 0-1.664-.2109-2.3331-.6328-.6648-.4218-1.1846-1.012-1.5596-1.7706-.3708-.7585-.5561-1.6449-.5561-2.6591 0-1.0227.1853-1.9154.5561-2.6782.375-.7628.8948-1.3551 1.5596-1.777.6691-.4219 1.4468-.6328 2.3331-.6328.8864 0 1.6619.2109 2.3267.6328.6691.4219 1.1889 1.0142 1.5597 1.777.375.7628.5625 1.6555.5625 2.6782 0 1.0142-.1875 1.9006-.5625 2.6591-.3708.7586-.8906 1.3488-1.5597 1.7706-.6648.4219-1.4403.6328-2.3267.6328Zm0-1.3551c.6733 0 1.2273-.1726 1.6619-.5177.4347-.3452.7564-.799.9652-1.3615.2089-.5625.3133-1.1719.3133-1.8282 0-.6562-.1044-1.2677-.3133-1.8345-.2088-.5667-.5305-1.0248-.9652-1.3743-.4346-.3494-.9886-.5241-1.6619-.5241-.6733 0-1.2273.1747-1.6619.5241-.4347.3495-.7564.8076-.9652 1.3743-.2088.5668-.3132 1.1783-.3132 1.8345 0 .6563.1044 1.2657.3132 1.8282.2088.5625.5305 1.0163.9652 1.3615.4346.3451.9886.5177 1.6619.5177Zm10.459 1.3551c-.8182 0-1.5405-.2066-2.1669-.62-.6264-.4176-1.1165-1.0057-1.4702-1.7642-.3537-.7628-.5305-1.6641-.5305-2.7038 0-1.0313.1768-1.9262.5305-2.6847.3537-.7585.8459-1.3444 1.4766-1.7578.6307-.4133 1.3594-.62 2.1861-.62.6392 0 1.1441.1065 1.5149.3196.375.2088.6605.4474.8565.7159.2003.2642.3558.4815.4666.652h.1279v-4.8324h1.5085V93h-1.4574v-1.5085h-.179c-.1108.179-.2684.4048-.473.6775-.2045.2685-.4964.5093-.8757.7223-.3792.2088-.8842.3132-1.5149.3132Zm.2045-1.3551c.6052 0 1.1165-.1576 1.5341-.473.4177-.3196.7351-.7606.9525-1.3231.2173-.5668.3259-1.2209.3259-1.9624 0-.7329-.1065-1.3743-.3196-1.924-.213-.554-.5284-.9844-.946-1.2912-.4176-.3111-.9332-.4666-1.5469-.4666-.6392 0-1.1718.1641-1.598.4922-.4218.3238-.7393.7649-.9524 1.3231-.2088.554-.3132 1.1762-.3132 1.8665 0 .6989.1065 1.3338.3196 1.9048.2173.5668.5369 1.0185.9588 1.3552.4262.3323.9546.4985 1.5852.4985Zm11.3843 1.3551c-.946 0-1.7621-.2088-2.4482-.6264-.6818-.4219-1.2081-1.0099-1.5788-1.7642-.3665-.7585-.5497-1.6406-.5497-2.6463s.1832-1.892.5497-2.6591c.3707-.7713.8864-1.3721 1.5469-1.8025.6647-.4347 1.4403-.652 2.3267-.652.5113 0 1.0163.0852 1.5149.2557.4986.1704.9524.4474 1.3615.8309.4091.3793.7351.8821.978 1.5085.2429.6265.3643 1.3978.3643 2.314v.6392h-7.5682v-1.304h6.0341c0-.554-.1108-1.0483-.3324-1.483-.2173-.4346-.5284-.7777-.9332-1.0291-.4006-.2514-.8736-.3771-1.419-.3771-.6009 0-1.1208.1491-1.5597.4474-.4346.2941-.7692.6776-1.0035 1.1506-.2344.473-.3516.9801-.3516 1.5213v.8693c0 .7415.1278 1.3701.3835 1.8857.26.5113.62.9013 1.0803 1.1697.4602.2642.995.3963 1.6044.3963.3963 0 .7542-.0554 1.0738-.1662.3239-.115.603-.2855.8374-.5113.2344-.2301.4155-.5157.5433-.8566l1.4574.4091c-.1534.4944-.4112.929-.7734 1.304-.3622.3707-.8097.6605-1.3424.8693-.5326.2046-1.1313.3068-1.7961.3068Zm7.4595-.1022c-.3153 0-.5859-.113-.8118-.3388-.2258-.2259-.3388-.4965-.3388-.8118 0-.3153.113-.5859.3388-.8118.2259-.2258.4965-.3388.8118-.3388.3153 0 .5859.113.8118.3388.2258.2259.3388.4965.3388.8118 0 .2088-.0533.4006-.1598.5753-.1023.1747-.2408.3153-.4155.4219-.1705.1022-.3622.1534-.5753.1534Zm3.8576-9.9205h1.5085v10.5341c0 .6051-.1044 1.1293-.3132 1.5725-.2045.4431-.5156.7862-.9332 1.0291-.4134.2429-.9354.3643-1.5661.3643h-.3068v-1.4062h.2813c.4602 0 .7968-.1364 1.0099-.4091.2131-.2685.3196-.652.3196-1.1506V83.1818Zm.7415-1.6363c-.2941 0-.5476-.1002-.7607-.3005-.2088-.2003-.3132-.441-.3132-.7223 0-.2812.1044-.522.3132-.7223.2131-.2003.4666-.3004.7607-.3004.294 0 .5454.1001.7542.3004.2131.2003.3196.4411.3196.7223 0 .2813-.1065.522-.3196.7223-.2088.2003-.4602.3005-.7542.3005Zm10.4845 3.8352-1.3551.3835c-.0852-.2258-.2109-.4453-.3771-.6584-.1619-.2173-.3835-.3963-.6648-.5369-.2812-.1406-.6413-.2109-1.0802-.2109-.6009 0-1.1016.1384-1.5022.4154-.3963.2728-.5944.6201-.5944 1.0419 0 .375.1363.6712.4091.8885.2727.2174.6988.3985 1.2784.5434l1.4573.3579c.8779.2131 1.532.5391 1.9624.978.4304.4347.6456.995.6456 1.6811 0 .5625-.1619 1.0653-.4858 1.5085-.3196.4432-.767.7926-1.3423 1.0483-.5753.2557-1.2443.3835-2.0071.3835-1.0014 0-1.8303-.2173-2.4865-.6519-.6563-.4347-1.0718-1.0696-1.2465-1.9049l1.4318-.3579c.1364.5284.3942.9247.7735 1.1889.3835.2642.8842.3963 1.5021.3963.7031 0 1.2614-.1491 1.6747-.4474.4176-.3026.6264-.6648.6264-1.0867 0-.3409-.1193-.6264-.3579-.8565-.2386-.2344-.6051-.4091-1.0994-.5242l-1.6364-.3835c-.8992-.2131-1.5597-.5433-1.9815-.9908-.4177-.4517-.6265-1.0163-.6265-1.6939 0-.5539.1556-1.044.4667-1.4701.3153-.4262.7436-.7607 1.2848-1.0036.5454-.2429 1.1633-.3643 1.8537-.3643.9715 0 1.7343.213 2.2883.6392.5582.4261.9546.9886 1.1889 1.6875Z" fill="white"/></g><defs><clipPath id="a"><path fill="#fff" transform="translate(.313965)" d="M0 0h65v100H0z"/></clipPath><clipPath id="b"><path fill="#fff" transform="translate(4.65381)" d="M0 0h56.32v64H0z"/></clipPath></defs></svg>