<svg baseProfile="basic" xmlns="http://www.w3.org/2000/svg" viewBox="0 0 48 48" xml:space="preserve"><path style="fill:#21a366" d="M24 45.4c-.6 0-1.1-.1-1.6-.4L17 41.9c-.8-.5-.4-.6-.1-.7l2.3-1c.2-.2.3-.1.4 0l4 2.3h.5l15.7-9c.2-.1.3-.3.3-.5V15c0-.2-.1-.4-.3-.5l-15.6-9h-.5L8 14.4c-.2 0-.3.3-.3.4V33c0 .2.1.4.3.5l4.3 2.4c2.3 1.2 3.7-.2 3.7-1.5v-18c0-.2.2-.4.5-.4h2c.2 0 .4.2.4.5v17.9c0 3-1.7 4.9-4.6 4.9-1 0-1.6 0-3.6-1l-4.2-2.4C5.6 35.3 5 34.2 5 33V15c0-1.3.6-2.4 1.6-3l15.8-9c1-.6 2.3-.6 3.3 0l15.7 9c1 .7 1.6 1.8 1.6 3v18c0 1.2-.6 2.3-1.6 3l-15.7 9c-.5.3-1.1.4-1.7.4"/><path style="fill:#21a366" d="M28.9 33c-7 0-8.4-3.2-8.4-5.9 0-.2.3-.4.5-.4h2c.3 0 .4.2.5.4.3 2 1.2 3 5.3 3 3.4 0 4.8-.7 4.8-2.4 0-1-.4-1.8-5.6-2.3-4.3-.4-7-1.4-7-4.8 0-3.2 2.7-5 7.2-5 5 0 7.5 1.7 7.8 5.4a.5.5 0 0 1-.4.5h-2a.4.4 0 0 1-.5-.3c-.5-2.2-1.7-2.9-4.9-2.9-3.6 0-4 1.3-4 2.2 0 1.2.5 1.5 5.3 2.1 4.9.7 7.2 1.6 7.2 5S33.8 33 28.8 33"/></svg>