<svg width="71" height="100" fill="none" xmlns="http://www.w3.org/2000/svg"><g clip-path="url(#a)"><g clip-path="url(#b)"><path d="M35.6572 38.7725c3.6723 0 6.6493-3.0321 6.6493-6.7725 0-3.7403-2.977-6.7725-6.6493-6.7725-3.6724 0-6.6494 3.0322-6.6494 6.7725 0 3.7404 2.977 6.7725 6.6494 6.7725Z" fill="#087EA4"/><path d="M35.6569 47.238c18.3617 0 33.2468-6.8223 33.2468-15.2381 0-8.4157-14.8851-15.2381-33.2468-15.2381S2.41016 23.5842 2.41016 31.9999c0 8.4158 14.88504 15.2381 33.24674 15.2381Z" stroke="#087EA4" stroke-width="3"/><path d="M22.7003 39.619c9.1809 16.1962 22.4243 25.9146 29.58 21.7067 7.1558-4.2079 5.5141-20.7486-3.6667-36.9448-9.1808-16.19615-22.4243-25.91456-29.58-21.70668-7.1558 4.20789-5.5141 20.74858 3.6667 36.94478Z" stroke="#087EA4" stroke-width="3"/><path d="M22.7002 24.3808c-9.1809 16.1962-10.8225 32.7369-3.6668 36.9448 7.1558 4.2079 20.3992-5.5105 29.58-21.7067 9.1809-16.1961 10.8225-32.73685 3.6668-36.94474-7.1558-4.20788-20.3992 5.51053-29.58 21.70664Z" stroke="#087EA4" stroke-width="3"/></g><path d="M12.7425 93V79.9091h4.4232c1.0228 0 1.8623.1747 2.5185.5241.6563.3452 1.1421.8204 1.4574 1.4255.3153.6051.473 1.2933.473 2.0646 0 .7713-.1577 1.4553-.473 2.0518-.3153.5966-.799 1.0654-1.451 1.4063-.652.3366-1.4851.505-2.4993.505h-3.5795v-1.4319h3.5284c.6988 0 1.2613-.1022 1.6875-.3068.4304-.2045.7415-.4943.9332-.8693.196-.3793.2941-.831.2941-1.3551 0-.5242-.0981-.9822-.2941-1.3743-.196-.392-.5092-.6946-.9396-.9077-.4304-.2173-.9993-.326-1.7067-.326h-2.7869V93h-1.5852Zm6.1619-5.8807L22.126 93h-1.8409l-3.1705-5.8807h1.7898Zm9.1582 6.0852c-.946 0-1.7621-.2088-2.4482-.6264-.6818-.4219-1.2081-1.0099-1.5788-1.7642-.3665-.7585-.5497-1.6406-.5497-2.6463s.1832-1.892.5497-2.6591c.3707-.7713.8864-1.3721 1.5469-1.8025.6647-.4347 1.4403-.652 2.3267-.652.5113 0 1.0163.0852 1.5149.2557.4986.1704.9524.4474 1.3615.8309.4091.3793.7351.8821.978 1.5085.2429.6265.3643 1.3978.3643 2.314v.6392h-7.5682v-1.304h6.0341c0-.554-.1108-1.0483-.3323-1.483-.2174-.4346-.5285-.7777-.9333-1.0291-.4006-.2514-.8736-.3771-1.419-.3771-.6009 0-1.1208.1491-1.5597.4474-.4346.2941-.7692.6776-1.0035 1.1506-.2344.473-.3516.9801-.3516 1.5213v.8693c0 .7415.1278 1.3701.3835 1.8857.26.5113.6201.9013 1.0803 1.1697.4602.2642.995.3963 1.6044.3963.3963 0 .7543-.0554 1.0739-.1662.3238-.115.6029-.2855.8373-.5113.2344-.2301.4155-.5157.5433-.8566l1.4574.4091c-.1534.4944-.4112.929-.7734 1.304-.3622.3707-.8097.6605-1.3423.8693-.5327.2046-1.1314.3068-1.7962.3068Zm9.2493.0256c-.6222 0-1.1868-.1172-1.6939-.3515-.5071-.2387-.9098-.5817-1.2081-1.0292-.2983-.4517-.4475-.9971-.4475-1.6363 0-.5625.1108-1.0185.3324-1.3679.2216-.3537.5178-.6307.8885-.831.3708-.2003.7799-.3494 1.2273-.4474.4517-.1023.9055-.1833 1.3615-.2429.5966-.0767 1.0803-.1343 1.451-.1726.375-.0426.6477-.1129.8182-.211.1747-.098.2621-.2684.2621-.5113v-.0512c0-.6306-.1726-1.1207-.5178-1.4701-.3409-.3495-.8587-.5242-1.5533-.5242-.7201 0-1.2848.1577-1.6939.473-.409.3154-.6967.652-.8629 1.01l-1.4318-.5114c.2557-.5966.5966-1.0611 1.0227-1.3935.4304-.3366.8992-.571 1.4063-.7031.5113-.1363 1.0142-.2045 1.5085-.2045.3153 0 .6776.0383 1.0866.115.4134.0725.8118.2238 1.1954.4539.3877.2301.7095.5774.9652 1.0419.2556.4645.3835 1.0866.3835 1.8664V93h-1.5085v-1.3295h-.0767c-.1023.213-.2728.441-.5114.6839-.2386.2429-.5561.4496-.9524.62-.3963.1705-.88.2557-1.451.2557Zm.2301-1.3551c.5966 0 1.0994-.1172 1.5085-.3516.4134-.2343.7244-.5369.9333-.9076.213-.3708.3196-.7607.3196-1.1698v-1.3807c-.064.0767-.2046.1471-.4219.211-.2131.0596-.4602.1129-.7415.1598-.277.0426-.5476.0809-.8118.115-.2599.0299-.4709.0554-.6328.0767-.392.0512-.7585.1343-1.0994.2493-.3367.1108-.6094.2791-.8182.505-.2046.2216-.3068.5241-.3068.9077 0 .5241.1939.9204.5816 1.1889.3921.2642.8885.3963 1.4894.3963Zm11.0119 1.3295c-.9205 0-1.7131-.2173-2.3779-.6519-.6647-.4347-1.1761-1.0334-1.534-1.7962-.358-.7628-.537-1.6342-.537-2.6144 0-.9971.1833-1.8771.5497-2.6399.3708-.767.8864-1.3657 1.5469-1.7961.6648-.4347 1.4404-.652 2.3267-.652.6904 0 1.3125.1278 1.8665.3835.554.2557 1.0078.6136 1.3615 1.0739.3537.4602.5732.9971.6584 1.6108h-1.5085c-.1151-.4475-.3708-.8438-.7671-1.189-.392-.3494-.9204-.5241-1.5852-.5241-.5881 0-1.1037.1534-1.5469.4602-.4389.3026-.7819.7308-1.0291 1.2848-.2429.5497-.3644 1.1953-.3644 1.9368 0 .7585.1194 1.419.358 1.9815.2429.5625.5838.9993 1.0227 1.3104.4432.3111.9631.4666 1.5597.4666.392 0 .7479-.0682 1.0675-.2045.3196-.1364.5902-.3324.8118-.5881.2215-.2557.3792-.5625.473-.9204h1.5085c-.0852.5795-.2962 1.1015-.6328 1.566-.3324.4602-.7735.8267-1.3232 1.0994-.5454.2685-1.1804.4027-1.9048.4027Zm10.3359-10.0227v1.2784h-5.088v-1.2784h5.088Zm-3.6051-2.3523h1.5085v9.358c0 .4261.0618.7457.1854.9588.1278.2088.2898.3494.4858.4219.2003.0682.4112.1023.6328.1023.1662 0 .3026-.0086.4091-.0256.1065-.0213.1918-.0384.2557-.0511l.3068 1.3551c-.1023.0383-.245.0767-.4283.115-.1832.0426-.4154.0639-.6967.0639-.4261 0-.8437-.0916-1.2528-.2748-.4049-.1833-.7415-.4624-1.01-.8374-.2642-.375-.3963-.848-.3963-1.419v-9.7671Z" fill="white"/></g><defs><clipPath id="a"><path fill="#fff" transform="translate(.748047)" d="M0 0h69.8182v100H0z"/></clipPath><clipPath id="b"><path fill="#fff" transform="translate(.748047)" d="M0 0h69.8182v64H0z"/></clipPath></defs></svg>