<svg xmlns="http://www.w3.org/2000/svg" viewBox="0 0 48 48" style="enable-background:new 0 0 48 48" xml:space="preserve"><path style="fill:#00acc1" d="M24 9.6c-6.4 0-10.4 3.2-12 9.6 2.4-3.2 5.2-4.4 8.4-3.6 1.8.5 3.1 1.8 4.6 3.2 2.3 2.4 5 5.2 11 5.2 6.4 0 10.4-3.2 12-9.6-2.4 3.2-5.2 4.4-8.4 3.6-1.8-.5-3.1-1.8-4.6-3.2-2.3-2.4-5-5.2-11-5.2zM12 24c-6.4 0-10.4 3.2-12 9.6 2.4-3.2 5.2-4.4 8.4-3.6 1.8.5 3.1 1.8 4.6 3.2 2.3 2.4 5 5.2 11 5.2 6.4 0 10.4-3.2 12-9.6-2.4 3.2-5.2 4.4-8.4 3.6-1.8-.5-3.1-1.8-4.6-3.2-2.3-2.4-5-5.2-11-5.2z"/></svg>