<svg xmlns="http://www.w3.org/2000/svg" viewBox="0 0 256 256" width="24" height="24"><path d="M25 2a23 23 0 1 1 0 46 23 23 0 0 1 0-46zm8 32.4c.4-1.3 2.3-14.3 2.6-16.8 0-.8-.2-1.3-.7-1.5-.5-.3-1.4-.2-2.4.2l-19.8 8.3c-1 .4-1.8.9-1.8 1.5 0 .4.2.7 1 1l3.8 1.1c1.1.3 2.4 0 3-.4.8-.4 9.4-6.2 10-6.7.6-.5 1 .2.6.7l-7.2 7c-1 1-.3 2 .4 2.3l6.7 4.5a4 4 0 0 0 2.3.8c.7 0 1-1 1.4-2z" transform="scale(5.12)" fill="#fff" stroke-miterlimit="10" font-family="none" font-weight="none" font-size="none" text-anchor="none" style="mix-blend-mode:normal"/></svg>